<?xml version="1.0" encoding="UTF-8"?>
<svg version="1.1" xmlns="http://www.w3.org/2000/svg" width="225" height="225">
<path d="M0 0 C74.25 0 148.5 0 225 0 C225 74.25 225 148.5 225 225 C150.75 225 76.5 225 0 225 C0 150.75 0 76.5 0 0 Z " fill="#FEFEFE" transform="translate(0,0)"/>
<path d="M0 0 C-0.33 2.97 -0.66 5.94 -1 9 C1.69508748 10.79672498 2.97444588 11.35821579 6 12 C9.02555412 12.64178421 10.30491252 13.20327502 13 15 C12.6875 16.9375 12.6875 16.9375 12 19 C11.01 19.33 10.02 19.66 9 20 C8.34 19.67 7.68 19.34 7 19 C4.04211431 18.5832448 4.04211431 18.5832448 1 19 C-1.56002346 21.218687 -1.94923191 22.65187593 -2.4375 26 C-2.18861905 29.03145943 -2.18861905 29.03145943 -0.5625 31.4375 C2.91328798 33.55688291 5.04810423 32.7565506 8.9375 32.09765625 C9.618125 32.06542969 10.29875 32.03320312 11 32 C13.0625 33.9375 13.0625 33.9375 14 36 C10.94206668 39.34916507 8.7760444 39.9363898 4.1875 40.3125 C-0.1858685 40.25622504 -2.62397294 38.82644126 -6 36 C-8.90426607 32.98816852 -9.89695173 29.64492464 -11.05859375 25.70703125 C-11.87221936 23.81500027 -11.87221936 23.81500027 -13.96484375 23.171875 C-16.82976549 22.92992384 -17.85331751 24.21109793 -20 26 C-20.66 26 -21.32 26 -22 26 C-21.48763635 19.51006037 -19.34070466 13.03191744 -14.42578125 8.57128906 C-3.69566785 0 -3.69566785 0 0 0 Z " fill="#383636" transform="translate(50,77)"/>
<path d="M0 0 C1.4370809 -0.05422947 2.87475462 -0.09289723 4.3125 -0.125 C5.11300781 -0.14820312 5.91351563 -0.17140625 6.73828125 -0.1953125 C9 0 9 0 12 2 C11.6875 3.9375 11.6875 3.9375 11 6 C10.01 6.33 9.02 6.66 8 7 C7.34 6.67 6.68 6.34 6 6 C3.04211431 5.5832448 3.04211431 5.5832448 0 6 C-2.56002346 8.218687 -2.94923191 9.65187593 -3.4375 13 C-3.18861905 16.03145943 -3.18861905 16.03145943 -1.5625 18.4375 C1.91328798 20.55688291 4.04810423 19.7565506 7.9375 19.09765625 C8.618125 19.06542969 9.29875 19.03320312 10 19 C12.0625 20.9375 12.0625 20.9375 13 23 C9.94206668 26.34916507 7.7760444 26.9363898 3.1875 27.3125 C-2.08926407 27.24460046 -5.10615013 24.76759321 -8.875 21.25 C-10.57933136 17.84133728 -11.04433964 14.64423414 -10 11 C-8.37439873 9.42641797 -6.700984 8.3829976 -4.7578125 7.23046875 C-2.10450287 5.37315201 -1.16471719 2.94604937 0 0 Z " fill="#353535" transform="translate(51,90)"/>
<path d="M0 0 C1.79133978 -0.05391993 3.58313899 -0.09275571 5.375 -0.125 C6.37273437 -0.14820312 7.37046875 -0.17140625 8.3984375 -0.1953125 C11 0 11 0 13 2 C13.14497985 4.58064129 13.18677545 7.04943884 13.125 9.625 C13.11597656 10.33140625 13.10695312 11.0378125 13.09765625 11.765625 C13.07407603 13.51056098 13.03820461 15.25532295 13 17 C11.04196493 17.05389087 9.08351091 17.09274217 7.125 17.125 C5.48917969 17.15980469 5.48917969 17.15980469 3.8203125 17.1953125 C1 17 1 17 -1 15 C-1.33015665 11.89652746 -1.50531294 9.84218824 0.125 7.125 C2.78034983 5.5317901 4.96789518 5.79785968 8 6 C8 5.34 8 4.68 8 4 C5.36 4 2.72 4 0 4 C0 2.68 0 1.36 0 0 Z " fill="#414141" transform="translate(131,99)"/>
<path d="M0 0 C2.5 2.25 2.5 2.25 4 5 C4 6.32 4 7.64 4 9 C0.04 9 -3.92 9 -8 9 C-7.01 10.485 -7.01 10.485 -6 12 C-2.41642759 12.25015873 -2.41642759 12.25015873 1 12 C1 13.32 1 14.64 1 16 C0 17 0 17 -3.75 17.375 C-7.20175452 17.31912628 -7.98951105 17.00721115 -11 14.9375 C-13.52975133 11.22192774 -13.7878128 9.4117517 -13 5 C-9.29725595 -0.43840533 -6.16104373 -0.97794345 0 0 Z " fill="#606060" transform="translate(175,99)"/>
<path d="M0 0 C2.12890625 0.421875 2.12890625 0.421875 4.69140625 2.109375 C6.12890625 4.421875 6.12890625 4.421875 6.12890625 9.421875 C2.16890625 9.421875 -1.79109375 9.421875 -5.87109375 9.421875 C-5.54109375 10.411875 -5.21109375 11.401875 -4.87109375 12.421875 C-2.23109375 12.421875 0.40890625 12.421875 3.12890625 12.421875 C3.12890625 13.741875 3.12890625 15.061875 3.12890625 16.421875 C2.12890625 17.421875 2.12890625 17.421875 -1.68359375 17.734375 C-4.90493264 17.70550996 -5.64904407 17.59268245 -8.30859375 15.546875 C-10.91300509 12.00487558 -11.30350931 9.83251375 -10.87109375 5.421875 C-8.27807514 0.23583778 -5.42570598 -0.32178816 0 0 Z " fill="#343434" transform="translate(78.87109375,98.578125)"/>
<path d="M0 0 C2.5 1.6875 2.5 1.6875 4 4 C4 5.65 4 7.3 4 9 C0.04 9 -3.92 9 -8 9 C-7.01 10.485 -7.01 10.485 -6 12 C-4.02252878 12.36297936 -4.02252878 12.36297936 -1.875 12.1875 C-0.59625 12.125625 0.6825 12.06375 2 12 C2 13.32 2 14.64 2 16 C-1.22056238 17.61028119 -4.5169099 17.59198765 -8 17 C-10.6483191 14.88134472 -11.73807669 13.37782575 -12.375 10.02734375 C-12.57568891 6.67207596 -12.23027695 4.38379492 -10.5 1.5 C-6.97689081 -0.61386551 -4.00828085 -0.81315534 0 0 Z " fill="#353535" transform="translate(109,99)"/>
<path d="M0 0 C1.65 0 3.3 0 5 0 C5 1.98 5 3.96 5 6 C6.32 6 7.64 6 9 6 C9 7.32 9 8.64 9 10 C7.68 10 6.36 10 5 10 C5 12.97 5 15.94 5 19 C6.65 19 8.3 19 10 19 C9.67 20.32 9.34 21.64 9 23 C5.625 23.125 5.625 23.125 2 23 C0 21 0 21 -0.1953125 18.3984375 C-0.17210937 17.40070313 -0.14890625 16.40296875 -0.125 15.375 C-0.10695312 14.37210938 -0.08890625 13.36921875 -0.0703125 12.3359375 C-0.04710937 11.56507812 -0.02390625 10.79421875 0 10 C-0.99 10 -1.98 10 -3 10 C-3 8.68 -3 7.36 -3 6 C-2.01 6 -1.02 6 0 6 C0 4.02 0 2.04 0 0 Z " fill="#3E3E3E" transform="translate(150,93)"/>
<path d="M0 0 C1.21816406 0.03480469 1.21816406 0.03480469 2.4609375 0.0703125 C3.68683594 0.09738281 3.68683594 0.09738281 4.9375 0.125 C5.87722656 0.15980469 5.87722656 0.15980469 6.8359375 0.1953125 C6.8359375 1.5153125 6.8359375 2.8353125 6.8359375 4.1953125 C3.8659375 3.7003125 3.8659375 3.7003125 0.8359375 3.1953125 C0.8359375 4.1853125 0.8359375 5.1753125 0.8359375 6.1953125 C1.6196875 6.3190625 2.4034375 6.4428125 3.2109375 6.5703125 C5.8359375 7.1953125 5.8359375 7.1953125 7.8359375 9.1953125 C8.1484375 12.1953125 8.1484375 12.1953125 7.8359375 15.1953125 C4.16728509 17.64108077 2.16393407 17.43138504 -2.1640625 17.1953125 C-2.8240625 16.8653125 -3.4840625 16.5353125 -4.1640625 16.1953125 C-3.8340625 14.8753125 -3.5040625 13.5553125 -3.1640625 12.1953125 C-0.8540625 12.5253125 1.4559375 12.8553125 3.8359375 13.1953125 C2.93770726 10.8541688 2.93770726 10.8541688 -0.1640625 9.9453125 C-3.1640625 8.1953125 -3.1640625 8.1953125 -4.1640625 5.1328125 C-4.1640625 1.61100124 -3.65228379 0.3296285 0 0 Z " fill="#3A3A3A" transform="translate(186.1640625,98.8046875)"/>
<path d="M0 0 C1.65 0 3.3 0 5 0 C5 8.58 5 17.16 5 26 C3.35 26 1.7 26 0 26 C0 17.42 0 8.84 0 0 Z " fill="#424242" transform="translate(88,90)"/>
<path d="M0 0 C1.875 1.0625 1.875 1.0625 3 3 C3.4375 6.5 3.4375 6.5 3 10 C1.3125 12 1.3125 12 -1 13 C-3.81900839 12.8624874 -5.45769347 12.35530428 -7.8125 10.8125 C-9.58260835 8.11075568 -9.39415803 6.15326426 -9 3 C-6.79086995 -0.68188342 -4.01844539 -0.50230567 0 0 Z " fill="#EB1717" transform="translate(168,128)"/>
<path d="M0 0 C2 2 2 2 2.375 4.875 C2 8 2 8 0.375 10.4375 C-2 12 -2 12 -5.125 11.9375 C-8 11 -8 11 -10 8 C-10.32443143 4.88545823 -10.45929053 2.83752979 -8.9375 0.0625 C-5.81651045 -1.6490104 -3.35466116 -0.79291991 0 0 Z " fill="#E92323" transform="translate(184,129)"/>
<path d="M0 0 C0.99 0 1.98 0 3 0 C3 1.98 3 3.96 3 6 C3.94875 5.95875 4.8975 5.9175 5.875 5.875 C9 6 9 6 11 8 C11.1953125 10.3828125 11.1953125 10.3828125 11.125 13.125 C11.10695312 14.03507813 11.08890625 14.94515625 11.0703125 15.8828125 C11.03550781 16.93082031 11.03550781 16.93082031 11 18 C10.01 18 9.02 18 8 18 C8 15.03 8 12.06 8 9 C6.68 9.33 5.36 9.66 4 10 C3.67 12.64 3.34 15.28 3 18 C2.01 18 1.02 18 0 18 C0 12.06 0 6.12 0 0 Z " fill="#EB0C0C" transform="translate(145,122)"/>
<path d="M0 0 C0.53625 0.309375 1.0725 0.61875 1.625 0.9375 C4.3984957 2.17827439 7.00042837 2.5909675 10 3 C10 3.33 10 3.66 10 4 C7.69 4 5.38 4 3 4 C2.79375 4.886875 2.5875 5.77375 2.375 6.6875 C0.59926967 10.96539579 -1.25035567 12.34400193 -5 15 C-5.66 15 -6.32 15 -7 15 C-7 16.65 -7 18.3 -7 20 C-7.2475 19.4225 -7.495 18.845 -7.75 18.25 C-9.16683317 15.6997003 -10.87627537 13.98214299 -13 12 C-12.39671875 11.72027344 -11.7934375 11.44054687 -11.171875 11.15234375 C-5.36458849 8.2393339 -2.67759766 5.93728176 0 0 Z " fill="#6F7376" transform="translate(48,86)"/>
<path d="M0 0 C3.63 0 7.26 0 11 0 C10.67 1.32 10.34 2.64 10 4 C8.35 4.33 6.7 4.66 5 5 C4.67 8.96 4.34 12.92 4 17 C2.68 17 1.36 17 0 17 C0 11.39 0 5.78 0 0 Z " fill="#303030" transform="translate(117,99)"/>
<path d="M0 0 C0.33 1.32 0.66 2.64 1 4 C-0.98 4 -2.96 4 -5 4 C-5 5.98 -5 7.96 -5 10 C-1.535 9.505 -1.535 9.505 2 9 C1.67 9.99 1.34 10.98 1 12 C-1.75 12.75 -1.75 12.75 -5 13 C-7.375 11.4375 -7.375 11.4375 -9 9 C-9.45742277 5.79804064 -9.55468045 3.92446741 -7.875 1.125 C-5.21965017 -0.4682099 -3.03210482 -0.20214032 0 0 Z " fill="#EB1718" transform="translate(140,128)"/>
<path d="M0 0 C1.98 0 3.96 0 6 0 C6.33 0.99 6.66 1.98 7 3 C5.68 3.33 4.36 3.66 3 4 C3.66 4.391875 4.32 4.78375 5 5.1875 C7 7 7 7 7.25 9.6875 C7.1675 10.450625 7.085 11.21375 7 12 C4.69 12.33 2.38 12.66 0 13 C0 11.68 0 10.36 0 9 C1.98 9.495 1.98 9.495 4 10 C3.154375 9.278125 2.30875 8.55625 1.4375 7.8125 C-1 5 -1 5 -0.8125 2.1875 C-0.544375 1.465625 -0.27625 0.74375 0 0 Z " fill="#EC1414" transform="translate(121,128)"/>
<path d="M0 0 C2.85929624 -0.23827469 5.19827208 -0.43309153 8 0 C10.5 2.25 10.5 2.25 12 5 C12 6.32 12 7.64 12 9 C8.04 9 4.08 9 0 9 C3 7 3 7 7 7 C5.27773504 3.75150023 5.27773504 3.75150023 2 3 C2 2.34 2 1.68 2 1 C1.34 0.67 0.68 0.34 0 0 Z " fill="#343535" transform="translate(167,99)"/>
<path d="M0 0 C2.97 0 5.94 0 9 0 C9 0.66 9 1.32 9 2 C7.35 2.33 5.7 2.66 4 3 C4 3.99 4 4.98 4 6 C4.99 6.33 5.98 6.66 7 7 C7 7.99 7 8.98 7 10 C4.125 10.125 4.125 10.125 1 10 C-1 8 -1 8 -1.1875 5 C-1 2 -1 2 0 0 Z " fill="#303030" transform="translate(131,106)"/>
<path d="M0 0 C6.3 -0.48461538 6.3 -0.48461538 9.4375 1.6875 C11 4 11 4 11 9 C7.04 9 3.08 9 -1 9 C-0.67 8.34 -0.34 7.68 0 7 C2.31 7 4.62 7 7 7 C4.8824606 3.82369089 3.2304343 2.87025144 0 1 C0 0.67 0 0.34 0 0 Z " fill="#2E2E2E" transform="translate(102,99)"/>
<path d="M0 0 C0.99 0 1.98 0 3 0 C3 5.94 3 11.88 3 18 C2.01 18 1.02 18 0 18 C0 12.06 0 6.12 0 0 Z " fill="#E9090A" transform="translate(189,122)"/>
<path d="M0 0 C0.33 0.66 0.66 1.32 1 2 C4.96 2 8.92 2 13 2 C13 3.32 13 4.64 13 6 C12 7 12 7 8.1875 7.3125 C4.99548109 7.2781156 4.18888197 7.13693943 1.5 5.1875 C0 3 0 3 0 0 Z " fill="#353536" transform="translate(163,109)"/>
<path d="M0 0 C2.5 1.6875 2.5 1.6875 5 4 C5.3125 6.75 5.3125 6.75 5 9 C1.875 8.47916667 -1.25 7.95833333 -4.375 7.4375 C-5.674375 7.2209375 -5.674375 7.2209375 -7 7 C-6.34 5.68 -5.68 4.36 -5 3 C-3.35 3.33 -1.7 3.66 0 4 C0 2.68 0 1.36 0 0 Z " fill="#787878" transform="translate(80,99)"/>
<path d="M0 0 C3.22986927 0.16563432 4.58162582 0.55277243 6.8125 2.9375 C8 5 8 5 8 7 C5.36 7 2.72 7 0 7 C0 6.34 0 5.68 0 5 C-1.32 5.33 -2.64 5.66 -4 6 C-2.84826645 3.53199953 -1.95216435 1.95216435 0 0 Z " fill="#737373" transform="translate(101,99)"/>
<path d="M0 0 C0.66 0 1.32 0 2 0 C2.66 1.65 3.32 3.3 4 5 C5.98 5 7.96 5 10 5 C10 3.35 10 1.7 10 0 C10.33 0 10.66 0 11 0 C11.35880399 5.3820598 11.35880399 5.3820598 9.875 7.9375 C8 9 8 9 4.9375 8.875 C2 8 2 8 0 5 C-0.125 2.3125 -0.125 2.3125 0 0 Z " fill="#EC0F0F" transform="translate(174,132)"/>
<path d="M0 0 C1.67542976 0.28604898 3.34385343 0.61781233 5 1 C4.67 2.98 4.34 4.96 4 7 C2.35 6.67 0.7 6.34 -1 6 C-1.042721 4.33388095 -1.04063832 2.66617115 -1 1 C-0.67 0.67 -0.34 0.34 0 0 Z " fill="#FCE0DF" transform="translate(178,131)"/>
<path d="M0 0 C1.65 0.33 3.3 0.66 5 1 C5 2.65 5 4.3 5 6 C3.125 6.625 3.125 6.625 1 7 C0.34 6.34 -0.32 5.68 -1 5 C-0.625 2.375 -0.625 2.375 0 0 Z " fill="#FDE5E4" transform="translate(163,131)"/>
<path d="M0 0 C0.66 0 1.32 0 2 0 C3.83832664 3.10217621 4.47446226 5.39408679 4 9 C3.01 9.66 2.02 10.32 1 11 C0.731875 10.236875 0.46375 9.47375 0.1875 8.6875 C-0.94424112 6.12619116 -1.91223401 4.80307062 -4 3 C-2.35 3 -0.7 3 1 3 C0.67 2.01 0.34 1.02 0 0 Z " fill="#FBD7D6" transform="translate(127,128)"/>
<path d="M0 0 C3.96 0 7.92 0 12 0 C11.01 0.495 11.01 0.495 10 1 C10 1.66 10 2.32 10 3 C7.36 3.33 4.72 3.66 2 4 C1.34 2.68 0.68 1.36 0 0 Z " fill="#E5E5E5" transform="translate(101,108)"/>
<path d="M0 0 C3.63 0 7.26 0 11 0 C10.01 0.495 10.01 0.495 9 1 C9 1.66 9 2.32 9 3 C6.69 3.33 4.38 3.66 2 4 C1.34 2.68 0.68 1.36 0 0 Z " fill="#E8E8E8" transform="translate(167,108)"/>
<path d="M0 0 C3.63 0 7.26 0 11 0 C9.375 2 9.375 2 7 4 C3.75 4.25 3.75 4.25 1 4 C0.67 2.68 0.34 1.36 0 0 Z " fill="#E1E1E1" transform="translate(73,108)"/>
<path d="M0 0 C1.39195915 4.17587745 -0.17676781 6.13474776 -2 10 C-2.66 9.67 -3.32 9.34 -4 9 C-4.33 10.65 -4.66 12.3 -5 14 C-5.66 13.67 -6.32 13.34 -7 13 C-6.65986985 7.55791766 -3.29703472 4.06331802 0 0 Z " fill="#E39796" transform="translate(30,93)"/>
<path d="M0 0 C0.33 0 0.66 0 1 0 C1.25 3.3125 1.25 3.3125 1 7 C-0.75 9 -0.75 9 -3 10 C-5.25 9.6875 -5.25 9.6875 -7 9 C-6.01 9 -5.02 9 -4 9 C-3.71125 7.88625 -3.4225 6.7725 -3.125 5.625 C-2 2 -2 2 0 0 Z " fill="#E92627" transform="translate(170,131)"/>
<path d="M0 0 C0.33 0.99 0.66 1.98 1 3 C1.66 3.33 2.32 3.66 3 4 C0.69 4.33 -1.62 4.66 -4 5 C-4 3.68 -4 2.36 -4 1 C-2.02 1.495 -2.02 1.495 0 2 C0 1.34 0 0.68 0 0 Z " fill="#E83738" transform="translate(125,136)"/>
<path d="M0 0 C1.32 0 2.64 0 4 0 C3.67 1.65 3.34 3.3 3 5 C1.68 4.67 0.36 4.34 -1 4 C-0.67 2.68 -0.34 1.36 0 0 Z " fill="#EAEAEA" transform="translate(135,108)"/>
<path d="M0 0 C-0.33 0.99 -0.66 1.98 -1 3 C-2.98 3.33 -4.96 3.66 -7 4 C-7 3.01 -7 2.02 -7 1 C-4.50935112 0.31292445 -2.62113708 0 0 0 Z " fill="#E92122" transform="translate(142,137)"/>
<path d="M0 0 C2.31 0 4.62 0 7 0 C6.67 1.32 6.34 2.64 6 4 C4.68 3.67 3.36 3.34 2 3 C2 2.34 2 1.68 2 1 C1.34 0.67 0.68 0.34 0 0 Z " fill="#2E2E2E" transform="translate(167,99)"/>
<path d="M0 0 C2.97 0 5.94 0 9 0 C8.67 0.99 8.34 1.98 8 3 C8 2.34 8 1.68 8 1 C3.39257135 2.21044132 3.39257135 2.21044132 -1 4 C-0.67 2.68 -0.34 1.36 0 0 Z " fill="#2B2B2B" transform="translate(184,99)"/>
<path d="M0 0 C0 0.99 0 1.98 0 3 C-2.64 3.33 -5.28 3.66 -8 4 C-7.67 3.01 -7.34 2.02 -7 1 C-2.25 0 -2.25 0 0 0 Z " fill="#712F31" transform="translate(39,89)"/>
</svg>
